<svg xmlns="http://www.w3.org/2000/svg" viewBox="0 0 800 900" width="800" height="900">
  <defs>
    <!-- Subtle gradient for background -->
    <radialGradient id="bgGradient" cx="50%" cy="40%" r="70%">
      <stop offset="0%" stop-color="#FEFDFB"/>
      <stop offset="100%" stop-color="#F8F6F1"/>
    </radialGradient>
  </defs>
  
  <!-- Background -->
  <rect width="800" height="900" fill="url(#bgGradient)"/>
  
  <!-- Corner brackets -->
  <g stroke="#6B6B63" stroke-width="2" fill="none" stroke-linecap="round">
    <!-- Top-left bracket -->
    <path d="M 150 130 L 150 170 M 150 130 L 190 130"/>
    <!-- Bottom-right bracket -->
    <path d="M 650 520 L 650 480 M 650 520 L 610 520"/>
  </g>
  
  <!-- Compass rose accent -->
  <g transform="translate(620, 160)">
    <circle cx="0" cy="0" r="25" fill="none" stroke="#E8E8E4" stroke-width="1.5"/>
    <!-- Cardinal directions -->
    <line x1="0" y1="-8" x2="0" y2="-20" stroke="#2A9D8F" stroke-width="2.5" stroke-linecap="round"/>
    <line x1="8" y1="0" x2="20" y2="0" stroke="#6B6B63" stroke-width="1.5" stroke-linecap="round"/>
    <line x1="0" y1="8" x2="0" y2="20" stroke="#6B6B63" stroke-width="1.5" stroke-linecap="round"/>
    <line x1="-8" y1="0" x2="-20" y2="0" stroke="#6B6B63" stroke-width="1.5" stroke-linecap="round"/>
  </g>
  
  <!-- Main globe symbol -->
  <g transform="translate(400, 325)">
    <!-- Outer ring -->
    <circle cx="0" cy="0" r="190" fill="none" stroke="#264653" stroke-width="12"/>
    
    <!-- Inner accent ring -->
    <circle cx="0" cy="0" r="165" fill="none" stroke="#2A9D8F" stroke-width="4"/>
    
    <!-- Central meridian (vertical ellipse) -->
    <ellipse cx="0" cy="0" rx="67" ry="155" fill="none" stroke="#264653" stroke-width="3"/>
    
    <!-- Equator line -->
    <line x1="-155" y1="0" x2="155" y2="0" stroke="#264653" stroke-width="3"/>
    
    <!-- Upper latitude curve -->
    <path d="M -140 -70 Q 0 -110 140 -70" fill="none" stroke="#1D3557" stroke-width="2"/>
    
    <!-- Lower latitude curve -->
    <path d="M -140 70 Q 0 110 140 70" fill="none" stroke="#1D3557" stroke-width="2"/>
    
    <!-- Side meridian curves -->
    <path d="M -105 -120 Q -125 0 -105 120" fill="none" stroke="#1D3557" stroke-width="2"/>
    <path d="M 105 -120 Q 125 0 105 120" fill="none" stroke="#1D3557" stroke-width="2"/>
    
    <!-- Location marker -->
    <g transform="translate(57, -48)">
      <!-- Pin head -->
      <circle cx="0" cy="0" r="22" fill="#2A9D8F" stroke="#264653" stroke-width="2"/>
      <!-- Inner dot -->
      <circle cx="0" cy="0" r="7" fill="#FEFDFB"/>
      <!-- Pin point -->
      <path d="M -10 18 L 10 18 L 0 38 Z" fill="#2A9D8F" stroke="#264653" stroke-width="2" stroke-linejoin="round"/>
    </g>
  </g>
  
  <!-- Wordmark: REGION MAP -->
  <text x="400" y="600" font-family="'Outfit', 'Segoe UI', system-ui, sans-serif" font-size="72" font-weight="700" fill="#264653" text-anchor="middle" letter-spacing="2">REGION MAP</text>
  
  <!-- Tagline: GENERATOR -->
  <text x="400" y="660" font-family="'Instrument Sans', 'Segoe UI', system-ui, sans-serif" font-size="24" font-weight="400" fill="#2A9D8F" text-anchor="middle" letter-spacing="12">GENERATOR</text>
  
  <!-- Horizontal rule -->
  <line x1="280" y1="700" x2="520" y2="700" stroke="#E8E8E4" stroke-width="1.5"/>
  
  <!-- Sub-tagline -->
  <text x="400" y="740" font-family="'Geist Mono', 'SF Mono', monospace" font-size="14" font-weight="400" fill="#6B6B63" text-anchor="middle" letter-spacing="3">VISUALIZE · CUSTOMIZE · EXPORT</text>
</svg>
